<svg width="5017" height="1758" viewBox="0 0 5017 1758" fill="none" xmlns="http://www.w3.org/2000/svg">
<path d="M885.147 1369.38H445.803C410.859 1369.34 377.357 1355.44 352.648 1330.73C327.939 1306.02 314.039 1272.52 314 1237.57V414.803C314.039 379.859 327.939 346.357 352.648 321.648C377.357 296.939 410.859 283.039 445.803 283H885.147C920.091 283.039 953.593 296.939 978.302 321.648C1003.01 346.357 1016.91 379.859 1016.95 414.803V1237.57C1016.91 1272.52 1003.01 1306.02 978.302 1330.73C953.593 1355.44 920.091 1369.34 885.147 1369.38V1369.38Z" fill="#F2F2F2"/>
<path d="M1738.15 1369.38H1298.8C1263.86 1369.34 1230.36 1355.44 1205.65 1330.73C1180.94 1306.02 1167.04 1272.52 1167 1237.57V414.803C1167.04 379.859 1180.94 346.357 1205.65 321.648C1230.36 296.939 1263.86 283.039 1298.8 283H1738.15C1773.09 283.039 1806.59 296.939 1831.3 321.648C1856.01 346.357 1869.91 379.859 1869.95 414.803V1237.57C1869.91 1272.52 1856.01 1306.02 1831.3 1330.73C1806.59 1355.44 1773.09 1369.34 1738.15 1369.38V1369.38Z" fill="#F2F2F2"/>
<path d="M4305.15 1369.38H3865.8C3830.86 1369.34 3797.36 1355.44 3772.65 1330.73C3747.94 1306.02 3734.04 1272.52 3734 1237.57V414.803C3734.04 379.859 3747.94 346.357 3772.65 321.648C3797.36 296.939 3830.86 283.039 3865.8 283H4305.15C4340.09 283.039 4373.59 296.939 4398.3 321.648C4423.01 346.357 4436.91 379.859 4436.95 414.803V1237.57C4436.91 1272.52 4423.01 1306.02 4398.3 1330.73C4373.59 1355.44 4340.09 1369.34 4305.15 1369.38V1369.38Z" fill="#F2F2F2"/>
<path d="M3450.15 1369.38H3010.8C2975.86 1369.34 2942.36 1355.44 2917.65 1330.73C2892.94 1306.02 2879.04 1272.52 2879 1237.57V414.803C2879.04 379.859 2892.94 346.357 2917.65 321.648C2942.36 296.939 2975.86 283.039 3010.8 283H3450.15C3485.09 283.039 3518.59 296.939 3543.3 321.648C3568.01 346.357 3581.91 379.859 3581.95 414.803V1237.57C3581.91 1272.52 3568.01 1306.02 3543.3 1330.73C3518.59 1355.44 3485.09 1369.34 3450.15 1369.38V1369.38Z" fill="#F2F2F2"/>
<path d="M2595.15 1369.38H2155.8C2120.86 1369.34 2087.36 1355.44 2062.65 1330.73C2037.94 1306.02 2024.04 1272.52 2024 1237.57V414.803C2024.04 379.859 2037.94 346.357 2062.65 321.648C2087.36 296.939 2120.86 283.039 2155.8 283H2595.15C2630.09 283.039 2663.59 296.939 2688.3 321.648C2713.01 346.357 2726.91 379.859 2726.95 414.803V1237.57C2726.91 1272.52 2713.01 1306.02 2688.3 1330.73C2663.59 1355.44 2630.09 1369.34 2595.15 1369.38V1369.38Z" fill="#F2F2F2"/>
<path d="M4752.9 0H263.606C193.715 0.0686045 126.705 27.8633 77.2843 77.2842C27.8634 126.705 0.0686045 193.715 0 263.606V1493.77C0.0686045 1563.66 27.8634 1630.67 77.2843 1680.09C126.705 1729.51 193.715 1757.31 263.606 1757.37H4752.9C4822.79 1757.31 4889.8 1729.51 4939.22 1680.09C4988.64 1630.67 5016.44 1563.66 5016.51 1493.77V263.606C5016.44 193.715 4988.64 126.705 4939.22 77.2842C4889.8 27.8633 4822.79 0.0686045 4752.9 0ZM5000.53 1493.77C5000.45 1559.42 4974.33 1622.36 4927.91 1668.78C4881.49 1715.2 4818.55 1741.31 4752.9 1741.4H263.606C197.956 1741.31 135.019 1715.2 88.5979 1668.78C42.1764 1622.36 16.0599 1559.42 15.9761 1493.77V263.606C16.0599 197.956 42.1764 135.019 88.5979 88.5979C135.019 42.1764 197.956 16.0599 263.606 15.9761H4752.9C4818.55 16.0599 4881.49 42.1764 4927.91 88.5979C4974.33 135.019 5000.45 197.956 5000.53 263.606V1493.77Z" fill="#3F3D56"/>
<path d="M896.212 558.809H432.905C415.956 558.809 399.702 552.076 387.717 540.092C375.733 528.107 369 511.853 369 494.905C369 477.956 375.733 461.702 387.717 449.717C399.702 437.733 415.956 431 432.905 431H896.212C913.161 431 929.415 437.733 941.4 449.717C953.384 461.702 960.117 477.956 960.117 494.905C960.117 511.853 953.384 528.107 941.4 540.092C929.415 552.076 913.161 558.809 896.212 558.809Z" fill="#FF4365"/>
<path d="M1751.21 558.809H1287.9C1270.96 558.809 1254.7 552.076 1242.72 540.092C1230.73 528.107 1224 511.853 1224 494.905C1224 477.956 1230.73 461.702 1242.72 449.717C1254.7 437.733 1270.96 431 1287.9 431H1751.21C1768.16 431 1784.42 437.733 1796.4 449.717C1808.38 461.702 1815.12 477.956 1815.12 494.905C1815.12 511.853 1808.38 528.107 1796.4 540.092C1784.42 552.076 1768.16 558.809 1751.21 558.809Z" fill="#FF4365"/>
<path d="M4316.21 558.809H3852.9C3835.96 558.809 3819.7 552.076 3807.72 540.092C3795.73 528.107 3789 511.853 3789 494.905C3789 477.956 3795.73 461.702 3807.72 449.717C3819.7 437.733 3835.96 431 3852.9 431H4316.21C4333.16 431 4349.42 437.733 4361.4 449.717C4373.38 461.702 4380.12 477.956 4380.12 494.905C4380.12 511.853 4373.38 528.107 4361.4 540.092C4349.42 552.076 4333.16 558.809 4316.21 558.809Z" fill="#FF4365"/>
<path d="M3461.21 558.809H2997.9C2980.96 558.809 2964.7 552.076 2952.72 540.092C2940.73 528.107 2934 511.853 2934 494.905C2934 477.956 2940.73 461.702 2952.72 449.717C2964.7 437.733 2980.96 431 2997.9 431H3461.21C3478.16 431 3494.42 437.733 3506.4 449.717C3518.38 461.702 3525.12 477.956 3525.12 494.905C3525.12 511.853 3518.38 528.107 3506.4 540.092C3494.42 552.076 3478.16 558.809 3461.21 558.809Z" fill="#FF4365"/>
<path d="M2606.21 558.809H2142.9C2125.96 558.809 2109.7 552.076 2097.72 540.092C2085.73 528.107 2079 511.853 2079 494.905C2079 477.956 2085.73 461.702 2097.72 449.717C2109.7 437.733 2125.96 431 2142.9 431H2606.21C2623.16 431 2639.42 437.733 2651.4 449.717C2663.38 461.702 2670.12 477.956 2670.12 494.905C2670.12 511.853 2663.38 528.107 2651.4 540.092C2639.42 552.076 2623.16 558.809 2606.21 558.809Z" fill="#FF4365"/>
<path d="M1662.76 1105.58H1396.1C1368.87 1105.12 1342.9 1093.98 1323.8 1074.55C1304.7 1055.13 1294 1028.98 1294 1001.74C1294 974.496 1304.7 948.346 1323.8 928.921C1342.9 909.497 1368.87 898.353 1396.1 897.893H1416.5C1426.61 876.469 1442.59 858.347 1462.57 845.625C1482.56 832.902 1505.74 826.098 1529.43 826C1561.65 826.295 1592.54 838.847 1615.83 861.104C1639.12 883.361 1653.06 913.653 1654.82 945.821H1662.76C1683.72 946.167 1703.7 954.735 1718.4 969.677C1733.1 984.62 1741.33 1004.74 1741.33 1025.7C1741.33 1046.66 1733.1 1066.78 1718.4 1081.73C1703.7 1096.67 1683.72 1105.24 1662.76 1105.58V1105.58ZM1396.1 913.869C1373.1 914.33 1351.2 923.79 1335.1 940.218C1319 956.647 1309.98 978.734 1309.98 1001.74C1309.98 1024.74 1319 1046.83 1335.1 1063.26C1351.2 1079.69 1373.1 1089.15 1396.1 1089.61H1662.76C1679.48 1089.26 1695.4 1082.38 1707.1 1070.43C1718.8 1058.48 1725.36 1042.42 1725.36 1025.7C1725.36 1008.98 1718.8 992.921 1707.1 980.974C1695.4 969.028 1679.48 962.143 1662.76 961.797H1647.07C1644.96 961.797 1642.92 960.955 1641.43 959.457C1639.93 957.959 1639.09 955.928 1639.09 953.809C1639.34 924.449 1627.94 896.187 1607.38 875.222C1586.82 854.257 1558.79 842.301 1529.43 841.976C1507.96 842.09 1487 848.505 1469.14 860.426C1451.28 872.346 1437.32 889.247 1428.98 909.032C1428.37 910.468 1427.34 911.691 1426.04 912.551C1424.73 913.41 1423.21 913.869 1421.64 913.869H1396.1Z" fill="#3F3D56"/>
<path d="M2519.76 1105.58H2253.1C2225.87 1105.12 2199.9 1093.98 2180.8 1074.55C2161.7 1055.13 2151 1028.98 2151 1001.74C2151 974.496 2161.7 948.346 2180.8 928.921C2199.9 909.497 2225.87 898.353 2253.1 897.893H2273.5C2283.61 876.469 2299.59 858.347 2319.57 845.625C2339.56 832.902 2362.74 826.098 2386.43 826C2418.65 826.295 2449.54 838.847 2472.83 861.104C2496.12 883.361 2510.06 913.653 2511.82 945.821H2519.76C2540.72 946.167 2560.7 954.735 2575.4 969.677C2590.1 984.62 2598.33 1004.74 2598.33 1025.7C2598.33 1046.66 2590.1 1066.78 2575.4 1081.73C2560.7 1096.67 2540.72 1105.24 2519.76 1105.58ZM2253.1 913.869C2230.1 914.33 2208.2 923.79 2192.1 940.218C2176 956.647 2166.98 978.734 2166.98 1001.74C2166.98 1024.74 2176 1046.83 2192.1 1063.26C2208.2 1079.69 2230.1 1089.15 2253.1 1089.61H2519.76C2536.48 1089.26 2552.4 1082.38 2564.1 1070.43C2575.8 1058.48 2582.36 1042.42 2582.36 1025.7C2582.36 1008.98 2575.8 992.921 2564.1 980.974C2552.4 969.028 2536.48 962.143 2519.76 961.797H2504.07C2501.96 961.797 2499.92 960.955 2498.43 959.457C2496.93 957.959 2496.09 955.928 2496.09 953.809C2496.34 924.449 2484.94 896.187 2464.38 875.222C2443.82 854.257 2415.79 842.301 2386.43 841.976C2364.96 842.09 2344 848.505 2326.14 860.426C2308.28 872.346 2294.32 889.247 2285.98 909.032C2285.37 910.468 2284.34 911.691 2283.04 912.551C2281.73 913.41 2280.21 913.869 2278.64 913.869H2253.1Z" fill="#3F3D56"/>
<path d="M2541.96 966.177L2535.73 951.465C2547.82 946.357 2558.46 938.352 2566.72 928.156C2574.97 917.961 2580.59 905.889 2583.08 893.007C2585.56 880.125 2584.84 866.829 2580.96 854.293C2577.09 841.758 2570.19 830.369 2560.88 821.132C2551.56 811.896 2540.11 805.096 2527.54 801.333C2514.97 797.57 2501.67 796.96 2488.81 799.557C2475.95 802.154 2463.93 807.877 2453.81 816.223C2443.68 824.568 2435.77 835.277 2430.77 847.406L2416 841.313C2422 826.76 2431.5 813.909 2443.65 803.895C2455.79 793.882 2470.22 787.013 2485.65 783.897C2501.08 780.781 2517.04 781.513 2532.12 786.028C2547.21 790.543 2560.94 798.702 2572.12 809.785C2583.3 820.868 2591.58 834.534 2596.23 849.576C2600.88 864.617 2601.75 880.571 2598.76 896.029C2595.78 911.487 2589.04 925.973 2579.13 938.207C2569.23 950.441 2556.46 960.048 2541.96 966.177V966.177Z" fill="#3F3D56"/>
<path d="M3374.76 1105.58H3342.7C3340.58 1105.58 3338.55 1104.74 3337.05 1103.24C3335.55 1101.74 3334.71 1099.71 3334.71 1097.59C3334.71 1095.48 3335.55 1093.44 3337.05 1091.95C3338.55 1090.45 3340.58 1089.61 3342.7 1089.61H3374.76C3391.48 1089.26 3407.4 1082.38 3419.1 1070.43C3430.8 1058.48 3437.36 1042.42 3437.36 1025.7C3437.36 1008.98 3430.8 992.921 3419.1 980.974C3407.4 969.028 3391.48 962.143 3374.76 961.797H3359.07C3356.96 961.797 3354.92 960.955 3353.43 959.457C3351.93 957.959 3351.09 955.928 3351.09 953.809C3351.34 924.449 3339.94 896.187 3319.38 875.222C3298.82 854.257 3270.79 842.301 3241.43 841.976C3219.96 842.09 3199 848.505 3181.14 860.426C3163.28 872.346 3149.32 889.247 3140.98 909.032C3140.37 910.468 3139.34 911.691 3138.04 912.551C3136.73 913.41 3135.21 913.869 3133.64 913.869H3108.1C3085.1 914.33 3063.2 923.79 3047.1 940.218C3031 956.647 3021.98 978.734 3021.98 1001.74C3021.98 1024.74 3031 1046.83 3047.1 1063.26C3063.2 1079.69 3085.1 1089.15 3108.1 1089.61H3132.87C3134.99 1089.61 3137.02 1090.45 3138.51 1091.95C3140.01 1093.44 3140.85 1095.48 3140.85 1097.59C3140.85 1099.71 3140.01 1101.74 3138.51 1103.24C3137.02 1104.74 3134.99 1105.58 3132.87 1105.58H3108.1C3080.87 1105.12 3054.9 1093.98 3035.8 1074.55C3016.7 1055.13 3006 1028.98 3006 1001.74C3006 974.496 3016.7 948.346 3035.8 928.921C3054.9 909.497 3080.87 898.353 3108.1 897.893H3128.5C3138.61 876.469 3154.59 858.347 3174.57 845.625C3194.56 832.902 3217.74 826.098 3241.43 826C3273.65 826.295 3304.54 838.847 3327.83 861.104C3351.12 883.361 3365.06 913.653 3366.82 945.821H3374.76C3395.72 946.167 3415.7 954.735 3430.4 969.677C3445.1 984.62 3453.33 1004.74 3453.33 1025.7C3453.33 1046.66 3445.1 1066.78 3430.4 1081.73C3415.7 1096.67 3395.72 1105.24 3374.76 1105.58Z" fill="#3F3D56"/>
<path d="M3195.99 1187.84C3193.87 1187.84 3191.84 1187 3190.34 1185.5C3188.84 1184 3188 1181.97 3188 1179.85V1087.99C3188 1085.87 3188.84 1083.84 3190.34 1082.34C3191.84 1080.84 3193.87 1080 3195.99 1080C3198.11 1080 3200.14 1080.84 3201.64 1082.34C3203.13 1083.84 3203.98 1085.87 3203.98 1087.99V1179.85C3203.98 1181.97 3203.13 1184 3201.64 1185.5C3200.14 1187 3198.11 1187.84 3195.99 1187.84Z" fill="#3F3D56"/>
<path d="M3279.99 1187.84C3277.87 1187.84 3275.84 1187 3274.34 1185.5C3272.84 1184 3272 1181.97 3272 1179.85V1087.99C3272 1085.87 3272.84 1083.84 3274.34 1082.34C3275.84 1080.84 3277.87 1080 3279.99 1080C3282.11 1080 3284.14 1080.84 3285.64 1082.34C3287.13 1083.84 3287.98 1085.87 3287.98 1087.99V1179.85C3287.98 1181.97 3287.13 1184 3285.64 1185.5C3284.14 1187 3282.11 1187.84 3279.99 1187.84Z" fill="#3F3D56"/>
<path d="M3237.99 1133.84C3235.87 1133.84 3233.84 1133 3232.34 1131.5C3230.84 1130 3230 1127.97 3230 1125.85V1033.99C3230 1031.87 3230.84 1029.84 3232.34 1028.34C3233.84 1026.84 3235.87 1026 3237.99 1026C3240.11 1026 3242.14 1026.84 3243.64 1028.34C3245.13 1029.84 3245.98 1031.87 3245.98 1033.99V1125.85C3245.98 1127.97 3245.13 1130 3243.64 1131.5C3242.14 1133 3240.11 1133.84 3237.99 1133.84Z" fill="#3F3D56"/>
<path d="M4026.97 1169.95C4036.9 1169.95 4044.95 1161.9 4044.95 1151.97C4044.95 1142.05 4036.9 1134 4026.97 1134C4017.05 1134 4009 1142.05 4009 1151.97C4009 1161.9 4017.05 1169.95 4026.97 1169.95Z" fill="#3F3D56"/>
<path d="M4177.97 1141.95C4187.9 1141.95 4195.95 1133.9 4195.95 1123.97C4195.95 1114.05 4187.9 1106 4177.97 1106C4168.05 1106 4160 1114.05 4160 1123.97C4160 1133.9 4168.05 1141.95 4177.97 1141.95Z" fill="#3F3D56"/>
<path d="M4116.97 1187.95C4126.9 1187.95 4134.95 1179.9 4134.95 1169.97C4134.95 1160.05 4126.9 1152 4116.97 1152C4107.05 1152 4099 1160.05 4099 1169.97C4099 1179.9 4107.05 1187.95 4116.97 1187.95Z" fill="#3F3D56"/>
<path d="M4084.97 1115.95C4094.9 1115.95 4102.95 1107.9 4102.95 1097.97C4102.95 1088.05 4094.9 1080 4084.97 1080C4075.05 1080 4067 1088.05 4067 1097.97C4067 1107.9 4075.05 1115.95 4084.97 1115.95Z" fill="#3F3D56"/>
<path d="M4243.76 1105.58H4211.7C4209.58 1105.58 4207.55 1104.74 4206.05 1103.24C4204.55 1101.74 4203.71 1099.71 4203.71 1097.59C4203.71 1095.48 4204.55 1093.44 4206.05 1091.95C4207.55 1090.45 4209.58 1089.61 4211.7 1089.61H4243.76C4260.48 1089.26 4276.4 1082.38 4288.1 1070.43C4299.8 1058.48 4306.36 1042.42 4306.36 1025.7C4306.36 1008.98 4299.8 992.921 4288.1 980.974C4276.4 969.028 4260.48 962.143 4243.76 961.797H4228.07C4225.96 961.797 4223.92 960.955 4222.43 959.457C4220.93 957.959 4220.09 955.928 4220.09 953.809C4220.34 924.449 4208.94 896.187 4188.38 875.222C4167.82 854.257 4139.79 842.301 4110.43 841.976C4088.96 842.09 4068 848.505 4050.14 860.426C4032.28 872.346 4018.32 889.247 4009.98 909.032C4009.37 910.468 4008.34 911.691 4007.04 912.551C4005.73 913.41 4004.21 913.869 4002.64 913.869H3977.1C3954.1 914.33 3932.2 923.79 3916.1 940.218C3900 956.647 3890.98 978.734 3890.98 1001.74C3890.98 1024.74 3900 1046.83 3916.1 1063.26C3932.2 1079.69 3954.1 1089.15 3977.1 1089.61H4001.87C4003.99 1089.61 4006.02 1090.45 4007.51 1091.95C4009.01 1093.44 4009.85 1095.48 4009.85 1097.59C4009.85 1099.71 4009.01 1101.74 4007.51 1103.24C4006.02 1104.74 4003.99 1105.58 4001.87 1105.58H3977.1C3949.87 1105.12 3923.9 1093.98 3904.8 1074.55C3885.7 1055.13 3875 1028.98 3875 1001.74C3875 974.496 3885.7 948.346 3904.8 928.921C3923.9 909.497 3949.87 898.353 3977.1 897.893H3997.5C4007.61 876.469 4023.59 858.347 4043.57 845.625C4063.56 832.902 4086.74 826.098 4110.43 826C4142.65 826.295 4173.54 838.847 4196.83 861.104C4220.12 883.361 4234.06 913.653 4235.82 945.821H4243.76C4264.72 946.167 4284.7 954.735 4299.4 969.677C4314.1 984.62 4322.33 1004.74 4322.33 1025.7C4322.33 1046.66 4314.1 1066.78 4299.4 1081.73C4284.7 1096.67 4264.72 1105.24 4243.76 1105.58V1105.58Z" fill="#3F3D56"/>
<path d="M664.857 1079.71C645.898 1079.71 627.365 1074.09 611.602 1063.56C595.838 1053.03 583.552 1038.06 576.297 1020.54C569.042 1003.02 567.143 983.75 570.842 965.156C574.541 946.562 583.67 929.481 597.076 916.076C610.482 902.67 627.562 893.541 646.156 889.842C664.751 886.143 684.024 888.041 701.54 895.297C719.055 902.552 734.026 914.838 744.559 930.602C755.092 946.365 760.714 964.898 760.714 983.857C760.685 1009.27 750.576 1033.64 732.606 1051.61C714.635 1069.58 690.271 1079.68 664.857 1079.71V1079.71ZM664.857 903.976C649.058 903.976 633.614 908.661 620.478 917.438C607.341 926.216 597.103 938.691 591.057 953.288C585.011 967.884 583.429 983.945 586.511 999.441C589.593 1014.94 597.201 1029.17 608.373 1040.34C619.544 1051.51 633.778 1059.12 649.273 1062.2C664.768 1065.28 680.83 1063.7 695.426 1057.66C710.022 1051.61 722.498 1041.37 731.275 1028.24C740.053 1015.1 744.737 999.656 744.737 983.857C744.714 962.678 736.29 942.374 721.315 927.399C706.339 912.423 686.035 904 664.857 903.976V903.976Z" fill="#3F3D56"/>
<path d="M664.988 861.839C662.869 861.839 660.838 860.997 659.34 859.499C657.842 858.001 657 855.969 657 853.851V761.988C657 759.869 657.842 757.838 659.34 756.34C660.838 754.842 662.869 754 664.988 754C667.107 754 669.138 754.842 670.636 756.34C672.135 757.838 672.976 759.869 672.976 761.988V853.851C672.976 855.969 672.135 858.001 670.636 859.499C669.138 860.997 667.107 861.839 664.988 861.839Z" fill="#3F3D56"/>
<path d="M663.988 1213.84C661.869 1213.84 659.838 1213 658.34 1211.5C656.842 1210 656 1207.97 656 1205.85V1113.99C656 1111.87 656.842 1109.84 658.34 1108.34C659.838 1106.84 661.869 1106 663.988 1106C666.107 1106 668.138 1106.84 669.636 1108.34C671.135 1109.84 671.976 1111.87 671.976 1113.99V1205.85C671.976 1207.97 671.135 1210 669.636 1211.5C668.138 1213 666.107 1213.84 663.988 1213.84Z" fill="#3F3D56"/>
<path d="M541.972 991.987C542.012 994.105 541.209 996.153 539.74 997.679C538.27 999.205 536.255 1000.09 534.137 1000.13L442.291 1001.87C440.173 1001.91 438.125 1001.11 436.599 999.642C435.073 998.172 434.193 996.157 434.152 994.039C434.112 991.921 434.915 989.873 436.384 988.347C437.853 986.821 439.869 985.94 441.987 985.9L533.833 984.152C535.951 984.112 537.999 984.915 539.525 986.384C541.051 987.853 541.931 989.869 541.972 991.987Z" fill="#3F3D56"/>
<path d="M788.066 985.885C788.049 983.767 788.873 981.728 790.359 980.218C791.844 978.707 793.869 977.849 795.988 977.831L887.847 977.066C889.966 977.049 892.004 977.874 893.515 979.359C895.025 980.845 895.884 982.869 895.901 984.988C895.919 987.106 895.094 989.145 893.609 990.655C892.123 992.166 890.099 993.024 887.98 993.042L796.121 993.807C794.002 993.824 791.963 993 790.453 991.514C788.943 990.029 788.084 988.004 788.066 985.885Z" fill="#3F3D56"/>
<path d="M768.988 888.299C767.398 888.299 765.844 887.825 764.525 886.936C763.206 886.048 762.182 884.786 761.585 883.312C760.988 881.838 760.844 880.22 761.172 878.663C761.5 877.107 762.285 875.685 763.426 874.578L801.896 837.254C803.417 835.779 805.461 834.969 807.579 835.001C809.698 835.033 811.717 835.905 813.192 837.426C814.667 838.947 815.477 840.991 815.445 843.109C815.413 845.228 814.541 847.246 813.02 848.722L774.55 886.045C773.061 887.493 771.065 888.302 768.988 888.299V888.299Z" fill="#3F3D56"/>
<path d="M508.987 1123.59C507.417 1123.59 505.883 1123.13 504.574 1122.26C503.266 1121.4 502.242 1120.16 501.631 1118.72C501.02 1117.27 500.848 1115.68 501.137 1114.13C501.425 1112.59 502.162 1111.17 503.256 1110.04L541.725 1070.42C543.202 1068.9 545.221 1068.03 547.34 1068C549.459 1067.97 551.503 1068.78 553.023 1070.26C554.543 1071.73 555.415 1073.75 555.446 1075.87C555.477 1077.99 554.665 1080.04 553.189 1081.56L514.719 1121.17C513.975 1121.94 513.084 1122.55 512.099 1122.96C511.114 1123.38 510.056 1123.6 508.987 1123.59V1123.59Z" fill="#3F3D56"/>
<path d="M561.458 888.299C559.381 888.302 557.385 887.493 555.896 886.045L517.426 848.722C516.673 847.991 516.072 847.12 515.655 846.157C515.239 845.194 515.017 844.158 515.001 843.109C514.985 842.061 515.176 841.019 515.563 840.043C515.949 839.068 516.524 838.179 517.255 837.426C517.985 836.673 518.857 836.071 519.82 835.655C520.782 835.239 521.818 835.017 522.867 835.001C523.916 834.985 524.958 835.176 525.933 835.562C526.908 835.949 527.797 836.524 528.55 837.254L567.02 874.578C568.162 875.685 568.946 877.107 569.274 878.663C569.602 880.22 569.459 881.838 568.861 883.312C568.264 884.786 567.24 886.048 565.921 886.936C564.602 887.825 563.048 888.299 561.458 888.299Z" fill="#3F3D56"/>
<path d="M807.444 1151.58C806.379 1151.58 805.323 1151.37 804.341 1150.95C803.359 1150.54 802.471 1149.93 801.728 1149.17L755.27 1101.56C754.538 1100.81 753.96 1099.93 753.571 1098.95C753.182 1097.98 752.988 1096.94 753.001 1095.89C753.013 1094.84 753.233 1093.8 753.646 1092.84C754.059 1091.88 754.658 1091 755.409 1090.27C756.16 1089.54 757.047 1088.96 758.021 1088.57C758.995 1088.18 760.036 1087.99 761.084 1088C762.133 1088.01 763.169 1088.23 764.133 1088.65C765.097 1089.06 765.97 1089.66 766.703 1090.41L813.16 1138.01C814.259 1139.14 815 1140.56 815.293 1142.11C815.586 1143.65 815.416 1145.25 814.806 1146.69C814.196 1148.14 813.172 1149.38 811.862 1150.25C810.553 1151.12 809.016 1151.58 807.444 1151.58Z" fill="#3F3D56"/>
</svg>
